<?xml version="1.0" encoding="utf-8"?>
<!-- Generator: Adobe Illustrator 16.0.0, SVG Export Plug-In . SVG Version: 6.00 Build 0)  -->
<!DOCTYPE svg PUBLIC "-//W3C//DTD SVG 1.1//EN" "http://www.w3.org/Graphics/SVG/1.1/DTD/svg11.dtd">
<svg version="1.1" id="Layer_1" xmlns="http://www.w3.org/2000/svg" xmlns:xlink="http://www.w3.org/1999/xlink" x="0px" y="0px"
	 width="196px" height="60px" viewBox="0 0 196 60" enable-background="new 0 0 196 60" xml:space="preserve">
<g>
	<path d="M37.677,15.654c2.894,2.391,4.339,6.356,4.339,11.894v29.745H30.182V30.426c0-2.324-0.307-4.107-0.925-5.35
		c-1.128-2.27-3.272-3.404-6.437-3.404c-3.89,0-6.558,1.662-8.003,4.984c-0.753,1.757-1.128,3.999-1.128,6.728v23.909H2.14v-44.09
		h11.185v6.443c1.479-2.27,2.877-3.904,4.198-4.903c2.367-1.783,5.366-2.675,8.999-2.675C31.067,12.068,34.785,13.264,37.677,15.654
		z"/>
	<path d="M89.591,51.89c-3.729,4.604-9.389,6.902-16.98,6.902c-7.592,0-13.251-2.299-16.979-6.902
		c-3.729-4.603-5.592-10.146-5.592-16.622c0-6.369,1.864-11.89,5.592-16.561c3.728-4.667,9.388-7.004,16.979-7.004
		c7.591,0,13.251,2.337,16.98,7.004c3.728,4.67,5.592,10.192,5.592,16.561C95.184,41.744,93.319,47.287,89.591,51.89z M64.77,25.049
		c-1.824,2.388-2.735,5.795-2.735,10.218c0,4.424,0.912,7.838,2.735,10.24c1.824,2.4,4.423,3.6,7.801,3.6
		c3.377,0,5.971-1.199,7.781-3.6"/>
	<path d="M98.912,21.753v-8.227h6.161V1.208H116.5v12.319h7.172v8.227H116.5v23.343c0,1.809,0.229,2.938,0.688,3.382
		c0.46,0.445,1.864,0.67,4.215,0.67c0.35,0,0.723-0.007,1.114-0.021c0.393-0.013,0.776-0.033,1.154-0.06v8.632l-5.471,0.201
		c-5.456,0.189-9.187-0.756-11.185-2.837c-1.298-1.323-1.944-3.362-1.944-6.118V21.753H98.912z"/>
	<path d="M167.924,51.89c-3.727,4.604-9.388,6.902-16.979,6.902c-7.591,0-13.25-2.299-16.979-6.902
		c-3.727-4.603-5.592-10.146-5.592-16.622c0-6.369,1.865-11.89,5.592-16.561c3.729-4.667,9.389-7.004,16.979-7.004
		c7.592,0,13.253,2.337,16.979,7.004c3.729,4.67,5.594,10.192,5.594,16.561C173.518,41.744,171.652,47.287,167.924,51.89z
		 M143.103,25.049c-1.823,2.388-2.734,5.795-2.734,10.218c0,4.424,0.911,7.838,2.734,10.24c1.824,2.4,4.425,3.6,7.802,3.6
		s5.972-1.199,7.78-3.6"/>
	<path d="M181.581,45.176h12.279v12.117h-12.279V45.176z"/>
</g>
</svg>
